PathFileType	4	(X/Y/Z)	58_2_26_p1_0-221.trc
DataRate	CameraRate	NumFrames	NumMarkers	Units	OrigDataRate	OrigDataStartFrame	OrigNumFrames
41.0	41.0	5	27	m	41.0	111	222
Frame#	Time	RHip			RKnee			RAnkle			RBigToe			RSmallToe			RHeel			LHip			LKnee			LAnkle			LBigToe			LSmallToe			LHeel			Neck			Head			Nose			RShoulder			RElbow			RWrist			RThumb			RIndex			RPinky			LShoulder			LElbow			LWrist			LThumb			LIndex			LPinky			
		X1	Y1	Z1	X2	Y2	Z2	X3	Y3	Z3	X4	Y4	Z4	X5	Y5	Z5	X6	Y6	Z6	X7	Y7	Z7	X8	Y8	Z8	X9	Y9	Z9	X10	Y10	Z10	X11	Y11	Z11	X12	Y12	Z12	X13	Y13	Z13	X14	Y14	Z14	X15	Y15	Z15	X16	Y16	Z16	X17	Y17	Z17	X18	Y18	Z18	X19	Y19	Z19	X20	Y20	Z20	X21	Y21	Z21	X22	Y22	Z22	X23	Y23	Z23	X24	Y24	Z24	X25	Y25	Z25	X26	Y26	Z26	X27	Y27	Z27	
111	2.707317073170732	0.34222697517073714	0.45853306288674767	1.0103265306316462	0.3370195048903191	0.6279862379376588	1.463720584147058	0.31678044769180086	0.7882273740422688	1.90137052015192	0.2873616222743406	0.5492702190726796	1.9547203929216614	0.3574215263919126	0.5734830242861778	1.9471203938672497	0.29152773839841145	0.8505077592193439	1.9482899102233908	0.1487865162589695	0.44241189390069635	1.0030065290634211	0.13690738289484145	0.6321490661351705	1.4630331990513126	0.13099999782940971	0.7565798652938377	1.8827375468766523	0.13467571802129588	0.5549727107187958	1.946149126007918	0.07361403197793341	0.6144464394369308	1.9539037534753698	0.1438413579672991	0.831973975839355	1.933844757175953	0.23979642192276845	0.3666967685363293	0.42682864146920685	0.2834774573735032	0.25816503840925353	0.1998172946480261	0.3082638146520499	0.2568028834089204	0.3475267933167453	0.37945528086344527	0.3946159537229013	0.5026198301662854	0.42429948819678026	0.5038088839742572	0.7736478628496477	0.4807523485826768	0.4756044881922797	1.0310507693208921	0.44443285538165106	0.3992613207466161	1.145663596932159	0.47277403520959616	0.4514042312037834	1.1712358923691368	0.46995782523933993	0.4953808850945279	1.1720545613659987	0.07495107950902963	0.34308431506119574	0.5131456962776715	0.08077155397429728	0.2734768406059755	0.7556274912432387	0.18950354640719075	0.03497371990883276	0.7955497285497698	0.2804796545995257	-0.009724088387588047	0.8117573705823913	0.2889261037010122	-0.0287084508332732	0.8458416935973097	0.2779646226796486	-0.026060759107770167	0.8642404368206157
112	2.731707317073171	0.34084858776916044	0.4586971665227436	0.9974044805892597	0.3361793239363524	0.6250596628348063	1.4586820268909706	0.31679489208729456	0.788217572487714	1.9012910479864942	0.2846541964992396	0.5371726254611977	1.9535144551810708	0.35525424043015097	0.5748760151542628	1.948457340307253	0.29274922866885406	0.8535784210814501	1.9537977805499118	0.14857136845575622	0.4422050294651264	1.002838268284989	0.13715453029756308	0.6313794724734758	1.4629806706644684	0.13109770973508952	0.7561807836625972	1.8823736426967808	0.13165629056497677	0.5416691355895394	1.9400816597717965	0.07344392839872092	0.6144204492124233	1.9535938773909847	0.14379470911970837	0.8309412304116022	1.932751529320798	0.23654657234844967	0.3548367039706451	0.4276800373106988	0.28738250496414525	0.2589205054115247	0.19952961669980196	0.3085111176996618	0.25690426559320645	0.3477143349873942	0.37624287502846154	0.4074094661952849	0.5022804782722831	0.4245055935504884	0.5053512275327934	0.7697008144257561	0.48413609965336013	0.4606865220954885	1.0243419001109566	0.4525081711668704	0.41875957446902456	1.140743306579027	0.477086432174482	0.46492246380907987	1.1686871714439153	0.47404996268138044	0.48096721781929297	1.1722402915116934	0.07916911213131433	0.33048378876426826	0.5132962132257312	0.0743955520722184	0.23602754908298737	0.7568474244325202	0.2493380585469489	0.0590984842590513	0.7876092129563249	0.3391617875226989	0.031070679861282327	0.7949257204858946	0.35179635293065425	0.03457781064986469	0.819335776364174	0.3228110497123711	0.003762578366604906	0.8581735325419367
113	2.7560975609756095	0.34129540761198346	0.46103851823132097	1.0008139035605208	0.33622768439474654	0.6253020714937864	1.459075150298553	0.3138377385112558	0.7761057342307525	1.9014471857645445	0.28819806869034964	0.5503714155677064	1.9590749638163503	0.36104820724307174	0.5739606483915585	1.9512345954449164	0.29237886883407577	0.8556082311130532	1.9500035467806272	0.14935655723444693	0.4445786157010425	1.0075298910445045	0.13725357449129036	0.6320219351958013	1.463193943160207	0.13108869548687901	0.7564775698003255	1.8826430280313062	0.1316492045017615	0.5416657819689208	1.939987103380697	0.07263353480558386	0.6115390209944435	1.9482615638863565	0.14393555617433185	0.8313139179566873	1.9332363636909802	0.23662631229949313	0.35652015862987	0.43109862269350047	0.287399707592604	0.25898179978949265	0.19953246285731838	0.3086158486474741	0.2571410987898413	0.3478125942123249	0.3758806772918727	0.40824170849423036	0.49882219141479206	0.42093121961657637	0.5205859983275752	0.7696216773445144	0.4837956262814998	0.4622846980896921	1.0278531419922992	0.45270555727586115	0.4196615001128404	1.140363711722351	0.47674635200908144	0.4664320110633285	1.1725572862433151	0.474235920187555	0.4810459523273509	1.172142923729267	0.08350107352744776	0.3182112991004205	0.5135583515573183	0.08341203278235639	0.24042349155708162	0.7701096613455106	0.26407108629026244	0.06270418602673349	0.7811803177073504	0.35549843230769385	0.03977959836543073	0.7837646472457399	0.3748102814204479	0.0010964708138145383	0.8029823729007234	0.34795770079548033	0.02515426225239273	0.8469352450615802
114	2.7804878048780486	0.34139017720941933	0.4607424009833099	1.000945208389548	0.3362004019917749	0.6252646280542243	1.459039560008017	0.3167747310568167	0.7882557858347738	1.9015022680109561	0.28723481664134115	0.5480520023521837	1.9540073145661911	0.3536682069529897	0.5876033320425905	1.9537292875112904	0.29238534560168844	0.8553907353655441	1.950239250763339	0.1497609828266633	0.44377120433622236	1.011105158080055	0.13735282058764547	0.631815064356372	1.4632482836207867	0.1312751889191458	0.7560850519639478	1.8823729429400966	0.13171567541435222	0.5415228690745779	1.939923718155104	0.07271939422001547	0.6110961393600056	1.947956826688483	0.1437380835726399	0.8308084603513687	1.932506514321134	0.2365489758848056	0.3564930719775797	0.4310767748651378	0.2872823273062865	0.25903798765713093	0.1994361288107302	0.308606739285922	0.25726310476782793	0.3478187469397521	0.37551276556177215	0.4087079021449993	0.5022128181080648	0.4202701553952385	0.5203718581723245	0.7690884122194379	0.4830687680397948	0.46095952778007593	1.023692470791279	0.4568145999886664	0.4298956390298376	1.138546682805545	0.47733507038816264	0.46552726950066	1.1678483913704438	0.4745874603056415	0.48112052880678036	1.171314657027624	0.0836064945884013	0.31805995894449934	0.5136236895159426	0.09574676684268585	0.2769582737794732	0.7753076440123796	0.2821419516075568	0.08227602438326766	0.781945891814542	0.38389747481051173	0.06454329856084615	0.7732297342399828	0.4130295278927672	0.032585091381914066	0.79841477904823	0.3618729537917998	0.04358172234377631	0.8478737708008313
115	2.8048780487804876	0.34121987794513126	0.4610090692861566	1.0006162649670893	0.3371341269660388	0.6277908349268054	1.463652650553655	0.31385817179435405	0.7757793201269192	1.9015194540293108	0.28749114040333507	0.5485276607975632	1.954457762543241	0.3493222120843786	0.5765394755629171	1.9530565877691952	0.2884838806753657	0.8373583674208815	1.9483228485712991	0.14947425169945958	0.445063583298165	1.0076326896623273	0.13734024649805499	0.6318176980025377	1.4632967127374197	0.1312817655555194	0.7560458566078749	1.8824079849619397	0.13169575633887085	0.5417376082116826	1.9402253119382	0.07355991002381317	0.6142211944797394	1.9535907500360814	0.14404332940526735	0.8309197340987419	1.9330586863029378	0.2367210918523582	0.35595288742937264	0.43442146916069496	0.2873252007453022	0.2589230838705135	0.19951453813918943	0.30861004962439026	0.2574283592223643	0.34787012910060094	0.3713797547123042	0.4082028749097336	0.5022723898284843	0.4155362652766933	0.5203569095015624	0.7680508644457849	0.4838414727975398	0.4627521685431606	1.027689434709201	0.46187187636158045	0.44079065263569683	1.1433421432604722	0.4859281581222492	0.47715858613644024	1.1726040842444951	0.4745069705115303	0.4806495311352556	1.1710886028266745	0.08375901557459653	0.3179553249845944	0.5137680631040786	0.09610880305553958	0.27629125954447037	0.7751386238832746	0.2890745314651531	0.09353760862382761	0.7794420351431304	0.3982349810688494	0.06583181470587596	0.768985206595984	0.42003239341922544	0.04109860096589259	0.7919363519583642	0.3789806098691578	0.05347368553736733	0.8450690947261295
